<?xml version="1.0" encoding="iso-8859-1"?>
<!-- Generator: Adobe Illustrator 19.0.0, SVG Export Plug-In . SVG Version: 6.00 Build 0)  -->
<svg version="1.1" id="Capa_1" xmlns="http://www.w3.org/2000/svg" xmlns:xlink="http://www.w3.org/1999/xlink" x="0px" y="0px"
	 viewBox="0 0 480 480" style="enable-background:new 0 0 480 480;" xml:space="preserve">
<g>
	<g>
		<g>
			<path d="M304,191.849h-56v-16.64c27.527-3.973,47.967-27.547,48-55.36c0-27.8-44-106.976-49.024-115.912
				c-2.504-3.853-7.657-4.946-11.51-2.442c-0.976,0.634-1.808,1.466-2.442,2.442C228,12.873,184,92.049,184,119.849
				c0.033,27.813,20.473,51.387,48,55.36v16.64h-56c-4.418,0-8,3.582-8,8v272c0,4.418,3.582,8,8,8h128c4.418,0,8-3.582,8-8v-272
				C312,195.431,308.418,191.849,304,191.849z M200,119.849c0-15.808,21.88-61.696,40-95.384c18.12,33.68,40,79.568,40,95.384
				c-0.024,19.001-13.389,35.373-32,39.2v-39.2c0-4.418-3.582-8-8-8s-8,3.582-8,8v39.2C213.389,155.222,200.024,138.85,200,119.849z
				 M296,463.849H184v-224h24c4.418,0,8,3.582,8,8v8c0,13.255,10.745,24,24,24s24-10.745,24-24v-8c0-4.418,3.582-8,8-8h24V463.849z
				 M296,223.849h-24c-13.255,0-24,10.745-24,24v8c0,4.418-3.582,8-8,8s-8-3.582-8-8v-8c0-13.255-10.745-24-24-24h-24v-16h112
				V223.849z"/>
			<path d="M136,239.849H80v-16.64c27.527-3.973,47.967-27.547,48-55.36c0-27.8-44-106.976-49.024-115.912
				c-2.504-3.853-7.657-4.946-11.51-2.442c-0.976,0.634-1.808,1.466-2.442,2.442C60,60.873,16,140.049,16,167.849
				c0.033,27.813,20.473,51.387,48,55.36v16.64H8c-4.418,0-8,3.582-8,8v224c0,4.418,3.582,8,8,8h128c4.418,0,8-3.582,8-8v-224
				C144,243.431,140.418,239.849,136,239.849z M32,167.849c0-15.808,21.88-61.696,40-95.384c18.12,33.68,40,79.568,40,95.384
				c-0.024,19.001-13.389,35.373-32,39.2v-39.2c0-4.418-3.582-8-8-8s-8,3.582-8,8v39.2C45.389,203.222,32.024,186.85,32,167.849z
				 M128,463.849H16v-176h16c4.418,0,8,3.582,8,8v8c0,13.255,10.745,24,24,24s24-10.745,24-24v-8c0-4.418,3.582-8,8-8h32V463.849z
				 M128,271.849H96c-13.255,0-24,10.745-24,24v8c0,4.418-3.582,8-8,8s-8-3.582-8-8v-8c0-13.255-10.745-24-24-24H16v-16h112V271.849
				z"/>
			<path d="M472,239.849h-56v-16.64c27.527-3.973,47.967-27.547,48-55.36c0-27.8-44-106.976-49.024-115.912
				c-2.504-3.853-7.657-4.946-11.51-2.442c-0.976,0.634-1.808,1.466-2.442,2.442C396,60.873,352,140.049,352,167.849
				c0.033,27.813,20.473,51.387,48,55.36v16.64h-56c-4.418,0-8,3.582-8,8v224c0,4.418,3.582,8,8,8h128c4.418,0,8-3.582,8-8v-224
				C480,243.431,476.418,239.849,472,239.849z M368,167.849c0-15.808,21.88-61.696,40-95.384c18.12,33.68,40,79.568,40,95.384
				c-0.024,19.001-13.389,35.373-32,39.2v-39.2c0-4.418-3.582-8-8-8s-8,3.582-8,8v39.2C381.389,203.222,368.024,186.85,368,167.849z
				 M464,463.849H352v-176h32c4.418,0,8,3.582,8,8v8c0,13.255,10.745,24,24,24s24-10.745,24-24v-8c0-4.418,3.582-8,8-8h16V463.849z
				 M464,271.849h-16c-13.255,0-24,10.745-24,24v8c0,4.418-3.582,8-8,8s-8-3.582-8-8v-8c0-13.255-10.745-24-24-24h-32v-16h112
				V271.849z"/>
		</g>
	</g>
</g>
<g>
</g>
<g>
</g>
<g>
</g>
<g>
</g>
<g>
</g>
<g>
</g>
<g>
</g>
<g>
</g>
<g>
</g>
<g>
</g>
<g>
</g>
<g>
</g>
<g>
</g>
<g>
</g>
<g>
</g>
</svg>
