<?xml version="1.0" encoding="UTF-8" standalone="no"?>
<svg
   xmlns:dc="http://purl.org/dc/elements/1.1/"
   xmlns:cc="http://creativecommons.org/ns#"
   xmlns:rdf="http://www.w3.org/1999/02/22-rdf-syntax-ns#"
   xmlns:svg="http://www.w3.org/2000/svg"
   xmlns="http://www.w3.org/2000/svg"
   xmlns:sodipodi="http://sodipodi.sourceforge.net/DTD/sodipodi-0.dtd"
   xmlns:inkscape="http://www.inkscape.org/namespaces/inkscape"
   version="1.1"
   id="Capa_1"
   x="0px"
   y="0px"
   viewBox="0 0 512 512"
   style="enable-background:new 0 0 512 512;"
   xml:space="preserve"
   sodipodi:docname="2.svg"
   inkscape:version="1.0.1 (3bc2e813f5, 2020-09-07)"><metadata
   id="metadata361"><rdf:RDF><cc:Work
       rdf:about=""><dc:format>image/svg+xml</dc:format><dc:type
         rdf:resource="http://purl.org/dc/dcmitype/StillImage" /></cc:Work></rdf:RDF></metadata><defs
   id="defs359" /><sodipodi:namedview
   pagecolor="#ffffff"
   bordercolor="#666666"
   borderopacity="1"
   objecttolerance="10"
   gridtolerance="10"
   guidetolerance="10"
   inkscape:pageopacity="0"
   inkscape:pageshadow="2"
   inkscape:window-width="1920"
   inkscape:window-height="1055"
   id="namedview357"
   showgrid="false"
   inkscape:zoom="1.6386719"
   inkscape:cx="256"
   inkscape:cy="256"
   inkscape:window-x="0"
   inkscape:window-y="0"
   inkscape:window-maximized="1"
   inkscape:current-layer="Capa_1" />
<g
   id="g324"
   transform="matrix(0.6907538,0,0,0.6907538,79.167027,79.167027)">
	<g
   id="g322">
		<path
   d="m 333.471,173.685 c -6.586,-4.267 -14.793,-4.899 -21.953,-1.692 -12.975,5.808 -26.651,9.472 -40.512,11.009 v -23.041 c 28.079,-7.152 48.909,-32.648 48.909,-62.923 0,-13.815 -7.838,-31.861 -23.962,-55.168 C 284.548,25.384 272.338,11.096 267.619,5.72 264.428,2.085 259.825,0 254.989,0 c -0.001,0 -0.002,0 -0.003,0 -4.836,0.001 -9.439,2.087 -12.626,5.72 -4.72,5.378 -16.93,19.665 -28.335,36.151 -16.124,23.308 -23.962,41.353 -23.962,55.168 0,30.993 21.834,56.967 50.923,63.389 v 22.573 c -13.859,-1.537 -27.534,-5.202 -40.505,-11.008 -7.161,-3.207 -15.367,-2.572 -21.953,1.692 -6.584,4.267 -10.516,11.499 -10.516,19.345 V 476.361 C 168.013,496.013 184,512 203.652,512 h 104.697 c 19.652,0 35.639,-15.988 35.639,-35.639 V 193.03 c 0,-7.846 -3.931,-15.078 -10.517,-19.345 z m -92.485,-64.189 v 19.508 c -12.293,-5.407 -20.903,-17.696 -20.903,-31.965 0,-10.269 14.186,-34.256 34.907,-59.757 20.717,25.497 34.906,49.488 34.906,59.757 0,13.475 -7.68,25.183 -18.889,30.999 v -18.543 c 0,-8.29 -6.72,-15.01 -15.01,-15.01 -8.291,0.001 -15.011,6.721 -15.011,15.011 z m 72.982,366.865 c 0,3.099 -2.521,5.619 -5.619,5.619 H 203.652 c -3.098,0 -5.619,-2.521 -5.619,-5.619 V 203.415 c 18.542,6.912 38.042,10.388 57.548,10.437 0.14,0.004 0.276,0.021 0.416,0.021 0.14,0 0.275,-0.017 0.414,-0.021 19.51,-0.048 39.013,-3.524 57.557,-10.437 z"
   id="path320" />
	</g>
</g>
<g
   id="g326">
</g>
<g
   id="g328">
</g>
<g
   id="g330">
</g>
<g
   id="g332">
</g>
<g
   id="g334">
</g>
<g
   id="g336">
</g>
<g
   id="g338">
</g>
<g
   id="g340">
</g>
<g
   id="g342">
</g>
<g
   id="g344">
</g>
<g
   id="g346">
</g>
<g
   id="g348">
</g>
<g
   id="g350">
</g>
<g
   id="g352">
</g>
<g
   id="g354">
</g>
</svg>
