<?xml version="1.0" encoding="UTF-8" standalone="no"?>
<svg
   xmlns:dc="http://purl.org/dc/elements/1.1/"
   xmlns:cc="http://creativecommons.org/ns#"
   xmlns:rdf="http://www.w3.org/1999/02/22-rdf-syntax-ns#"
   xmlns:svg="http://www.w3.org/2000/svg"
   xmlns="http://www.w3.org/2000/svg"
   xmlns:sodipodi="http://sodipodi.sourceforge.net/DTD/sodipodi-0.dtd"
   xmlns:inkscape="http://www.inkscape.org/namespaces/inkscape"
   version="1.1"
   id="Capa_1"
   x="0px"
   y="0px"
   width="151.851px"
   height="151.851px"
   viewBox="0 0 151.851 151.851"
   style="enable-background:new 0 0 151.851 151.851;"
   xml:space="preserve"
   sodipodi:docname="4.svg"
   inkscape:version="1.0.1 (3bc2e813f5, 2020-09-07)"><metadata
   id="metadata525"><rdf:RDF><cc:Work
       rdf:about=""><dc:format>image/svg+xml</dc:format><dc:type
         rdf:resource="http://purl.org/dc/dcmitype/StillImage" /></cc:Work></rdf:RDF></metadata><defs
   id="defs523" /><sodipodi:namedview
   pagecolor="#ffffff"
   bordercolor="#666666"
   borderopacity="1"
   objecttolerance="10"
   gridtolerance="10"
   guidetolerance="10"
   inkscape:pageopacity="0"
   inkscape:pageshadow="2"
   inkscape:window-width="1920"
   inkscape:window-height="1055"
   id="namedview521"
   showgrid="false"
   inkscape:zoom="5.525153"
   inkscape:cx="75.925499"
   inkscape:cy="75.925499"
   inkscape:window-x="0"
   inkscape:window-y="0"
   inkscape:window-maximized="1"
   inkscape:current-layer="Capa_1" />
<g
   id="g488"
   transform="matrix(0.76603424,0,0,0.76603424,17.763967,17.763967)">
	<g
   id="g486">
		<path
   d="m 105.987,45.31 h 22.408 L 116.491,29.722 128.395,14.134 h -22.408 v -1.06 C 105.987,5.867 100.361,0 93.432,0 86.521,0 80.876,5.861 80.876,13.074 v 28.202 c -1.982,-1.328 -4.345,-2.119 -6.89,-2.119 -3.766,0 -7.127,1.726 -9.453,4.42 -2.333,-2.695 -5.688,-4.42 -9.466,-4.42 -3.766,0 -7.125,1.726 -9.45,4.42 -2.326,-2.695 -5.688,-4.42 -9.459,-4.42 -6.771,0 -12.285,5.504 -12.632,12.382 l -0.07,0.344 v 0.356 12.793 7.401 26.491 7.745 c 0,26.61 20.938,45.182 50.942,45.182 30.007,0 50.941,-18.571 50.941,-45.182 V 75.25 c 0,-2.012 -1.564,-4.292 -2.618,-5.19 -2.149,-1.866 -9.305,-3.312 -16.782,-4.372 l 0.037,-0.168 V 45.316 h 0.012 V 45.31 Z m -18.864,0 h 12.629 v 19.585 c -2.643,-0.304 -5.169,-0.56 -7.331,-0.767 -2.021,-0.21 -3.745,-0.167 -5.31,-0.012 z m 28.681,-6.236 H 88.024 V 20.369 h 27.779 l -7.149,9.353 z M 93.456,6.235 c 3.483,0 6.309,3.06 6.309,6.838 v 1.06 H 87.136 v -1.06 c -0.013,-3.778 2.825,-6.838 6.32,-6.838 z m -19.47,39.163 c 3.565,0 6.476,3.069 6.476,6.854 v 12.75 l 0.256,1.221 c -2.235,1.51 -3.525,3.556 -4.244,5.496 -0.887,2.411 -0.941,4.932 -0.362,7.282 -0.561,0.171 -1.146,0.28 -1.745,0.28 -3.479,0 -6.277,-2.935 -6.408,-6.579 l 0.024,-0.268 V 51.746 L 67.8,50.836 c 0.636,-3.094 3.093,-5.438 6.186,-5.438 z m -18.898,0 c 3.249,0 5.849,2.606 6.296,5.916 l -0.101,0.925 v 21.062 l 0.143,0.737 c -0.691,2.977 -3.13,5.231 -6.147,5.231 -3.45,0 -6.199,-2.875 -6.397,-6.461 l 0.006,-0.03 V 72.416 52.239 51.734 L 48.8,51.296 c 0.458,-3.304 3.04,-5.898 6.288,-5.898 z M 29.715,65.032 V 52.239 c 0,-3.772 2.901,-6.847 6.467,-6.847 3.254,0 5.849,2.594 6.296,5.91 l -0.091,0.932 V 73.82 c -0.636,3.081 -3.099,5.444 -6.199,5.444 -3.565,0 -6.473,-3.069 -6.473,-6.848 z m 88.914,9.703 0.499,0.514 v 31.42 c 0,22.932 -18.377,38.947 -44.707,38.947 -26.323,0 -44.706,-16.016 -44.706,-38.947 V 98.924 83.628 c 1.909,1.169 4.098,1.888 6.473,1.888 3.821,0 7.216,-1.784 9.548,-4.542 2.323,2.746 5.724,4.542 9.545,4.542 3.814,0 7.209,-1.784 9.539,-4.542 2.332,2.746 5.727,4.542 9.547,4.542 1.642,0 3.236,-0.414 4.744,-1.048 1.449,1.627 3.288,2.973 5.541,3.788 l 19.899,5.505 c 1.644,0.438 3.379,-0.523 3.836,-2.192 0.45,-1.656 -0.518,-3.374 -2.18,-3.824 L 86.551,82.326 c -3.556,-1.315 -5.449,-5.104 -4.226,-8.464 0.487,-1.315 1.583,-4.427 9.456,-3.517 11.308,1.029 24.814,3.035 26.848,4.39 z"
   id="path484" />
	</g>
</g>
<g
   id="g490">
</g>
<g
   id="g492">
</g>
<g
   id="g494">
</g>
<g
   id="g496">
</g>
<g
   id="g498">
</g>
<g
   id="g500">
</g>
<g
   id="g502">
</g>
<g
   id="g504">
</g>
<g
   id="g506">
</g>
<g
   id="g508">
</g>
<g
   id="g510">
</g>
<g
   id="g512">
</g>
<g
   id="g514">
</g>
<g
   id="g516">
</g>
<g
   id="g518">
</g>
</svg>
