<?xml version="1.0" encoding="UTF-8" standalone="no"?>
<svg
   xmlns:dc="http://purl.org/dc/elements/1.1/"
   xmlns:cc="http://creativecommons.org/ns#"
   xmlns:rdf="http://www.w3.org/1999/02/22-rdf-syntax-ns#"
   xmlns:svg="http://www.w3.org/2000/svg"
   xmlns="http://www.w3.org/2000/svg"
   xmlns:sodipodi="http://sodipodi.sourceforge.net/DTD/sodipodi-0.dtd"
   xmlns:inkscape="http://www.inkscape.org/namespaces/inkscape"
   inkscape:version="1.0.1 (3bc2e813f5, 2020-09-07)"
   sodipodi:docname="5.svg"
   xml:space="preserve"
   style="enable-background:new 0 0 480 480;"
   viewBox="0 0 480 480"
   y="0px"
   x="0px"
   id="Capa_1"
   version="1.1"><metadata
   id="metadata880"><rdf:RDF><cc:Work
       rdf:about=""><dc:format>image/svg+xml</dc:format><dc:type
         rdf:resource="http://purl.org/dc/dcmitype/StillImage" /><dc:title></dc:title></cc:Work></rdf:RDF></metadata><defs
   id="defs878" /><sodipodi:namedview
   inkscape:current-layer="g843"
   inkscape:window-maximized="0"
   inkscape:window-y="0"
   inkscape:window-x="0"
   inkscape:cy="261.0962"
   inkscape:cx="228.93622"
   inkscape:zoom="0.85741411"
   showgrid="false"
   id="namedview876"
   inkscape:window-height="900"
   inkscape:window-width="1440"
   inkscape:pageshadow="2"
   inkscape:pageopacity="0"
   guidetolerance="10"
   gridtolerance="10"
   objecttolerance="10"
   borderopacity="1"
   inkscape:document-rotation="0"
   bordercolor="#666666"
   pagecolor="#ffffff" />
<g
   id="g843">
	<g
   style="fill:#000000;fill-opacity:1"
   transform="matrix(0.6840325,0,0,0.6840325,75.832197,75.832045)"
   id="g841">
		<g
   style="fill:#000000;fill-opacity:1"
   id="g839">
			<path
   style="fill:#000000;fill-opacity:1"
   inkscape:connector-curvature="0"
   id="path833"
   d="m 304,191.849 h -56 v -16.64 c 27.527,-3.973 47.967,-27.547 48,-55.36 0,-27.8 -44,-106.976 -49.024,-115.912 -2.504,-3.853 -7.657,-4.946 -11.51,-2.442 -0.976,0.634 -1.808,1.466 -2.442,2.442 C 228,12.873 184,92.049 184,119.849 c 0.033,27.813 20.473,51.387 48,55.36 v 16.64 h -56 c -4.418,0 -8,3.582 -8,8 v 272 c 0,4.418 3.582,8 8,8 h 128 c 4.418,0 8,-3.582 8,-8 v -272 c 0,-4.418 -3.582,-8 -8,-8 z m -104,-72 c 0,-15.808 21.88,-61.696 40,-95.384 18.12,33.68 40,79.568 40,95.384 -0.024,19.001 -13.389,35.373 -32,39.2 v -39.2 c 0,-4.418 -3.582,-8 -8,-8 -4.418,0 -8,3.582 -8,8 v 39.2 c -18.611,-3.827 -31.976,-20.199 -32,-39.2 z m 96,344 H 184 v -224 h 24 c 4.418,0 8,3.582 8,8 v 8 c 0,13.255 10.745,24 24,24 13.255,0 24,-10.745 24,-24 v -8 c 0,-4.418 3.582,-8 8,-8 h 24 z m 0,-240 h -24 c -13.255,0 -24,10.745 -24,24 v 8 c 0,4.418 -3.582,8 -8,8 -4.418,0 -8,-3.582 -8,-8 v -8 c 0,-13.255 -10.745,-24 -24,-24 h -24 v -16 h 112 z" />
			<path
   style="fill:#000000;fill-opacity:1"
   inkscape:connector-curvature="0"
   id="path835"
   d="M 136,239.849 H 80 v -16.64 c 27.527,-3.973 47.967,-27.547 48,-55.36 C 128,140.049 84,60.873 78.976,51.937 76.472,48.084 71.319,46.991 67.466,49.495 66.49,50.129 65.658,50.961 65.024,51.937 60,60.873 16,140.049 16,167.849 c 0.033,27.813 20.473,51.387 48,55.36 v 16.64 H 8 c -4.418,0 -8,3.582 -8,8 v 224 c 0,4.418 3.582,8 8,8 h 128 c 4.418,0 8,-3.582 8,-8 v -224 c 0,-4.418 -3.582,-8 -8,-8 z m -104,-72 c 0,-15.808 21.88,-61.696 40,-95.384 18.12,33.68 40,79.568 40,95.384 -0.024,19.001 -13.389,35.373 -32,39.2 v -39.2 c 0,-4.418 -3.582,-8 -8,-8 -4.418,0 -8,3.582 -8,8 v 39.2 C 45.389,203.222 32.024,186.85 32,167.849 Z m 96,296 H 16 v -176 h 16 c 4.418,0 8,3.582 8,8 v 8 c 0,13.255 10.745,24 24,24 13.255,0 24,-10.745 24,-24 v -8 c 0,-4.418 3.582,-8 8,-8 h 32 z m 0,-192 H 96 c -13.255,0 -24,10.745 -24,24 v 8 c 0,4.418 -3.582,8 -8,8 -4.418,0 -8,-3.582 -8,-8 v -8 c 0,-13.255 -10.745,-24 -24,-24 H 16 v -16 h 112 z" />
			<path
   style="fill:#000000;fill-opacity:1"
   inkscape:connector-curvature="0"
   id="path837"
   d="m 472,239.849 h -56 v -16.64 c 27.527,-3.973 47.967,-27.547 48,-55.36 0,-27.8 -44,-106.976 -49.024,-115.912 -2.504,-3.853 -7.657,-4.946 -11.51,-2.442 -0.976,0.634 -1.808,1.466 -2.442,2.442 C 396,60.873 352,140.049 352,167.849 c 0.033,27.813 20.473,51.387 48,55.36 v 16.64 h -56 c -4.418,0 -8,3.582 -8,8 v 224 c 0,4.418 3.582,8 8,8 h 128 c 4.418,0 8,-3.582 8,-8 v -224 c 0,-4.418 -3.582,-8 -8,-8 z m -104,-72 c 0,-15.808 21.88,-61.696 40,-95.384 18.12,33.68 40,79.568 40,95.384 -0.024,19.001 -13.389,35.373 -32,39.2 v -39.2 c 0,-4.418 -3.582,-8 -8,-8 -4.418,0 -8,3.582 -8,8 v 39.2 c -18.611,-3.827 -31.976,-20.199 -32,-39.2 z m 96,296 H 352 v -176 h 32 c 4.418,0 8,3.582 8,8 v 8 c 0,13.255 10.745,24 24,24 13.255,0 24,-10.745 24,-24 v -8 c 0,-4.418 3.582,-8 8,-8 h 16 z m 0,-192 h -16 c -13.255,0 -24,10.745 -24,24 v 8 c 0,4.418 -3.582,8 -8,8 -4.418,0 -8,-3.582 -8,-8 v -8 c 0,-13.255 -10.745,-24 -24,-24 h -32 v -16 h 112 z" />
		</g>
	</g>
</g>
<g
   id="g845">
</g>
<g
   id="g847">
</g>
<g
   id="g849">
</g>
<g
   id="g851">
</g>
<g
   id="g853">
</g>
<g
   id="g855">
</g>
<g
   id="g857">
</g>
<g
   id="g859">
</g>
<g
   id="g861">
</g>
<g
   id="g863">
</g>
<g
   id="g865">
</g>
<g
   id="g867">
</g>
<g
   id="g869">
</g>
<g
   id="g871">
</g>
<g
   id="g873">
</g>
</svg>
