<svg id="Layer_1" enable-background="new 0 0 512 512" height="512" viewBox="0 0 512 512" width="512" xmlns="http://www.w3.org/2000/svg"><g><path d="m429 422.998c4.142 0 7.5-3.358 7.5-7.5v-208.148c0-8.27-2.043-16.508-5.909-23.824-3.854-7.295-9.514-13.621-16.372-18.297-9.843-6.697-15.719-17.804-15.719-29.709v-1.449c1.788.368 3.69.65 5.755.801 2.899.198 5.782-.825 7.907-2.81 2.121-1.98 3.337-4.777 3.337-7.673v-41.85c9.247-2.796 16-11.392 16-21.539s-6.753-18.743-16-21.539v-1.961c.001-20.678-16.821-37.5-37.499-37.5h-25.573c-4.142 0-7.5 3.358-7.5 7.5s3.358 7.5 7.5 7.5h25.573c12.407 0 22.5 10.093 22.5 22.5v1h-289v-1c0-12.407 10.093-22.5 22.5-22.5h186.241c4.142 0 7.5-3.358 7.5-7.5s-3.358-7.5-7.5-7.5h-186.241c-20.678 0-37.5 16.822-37.5 37.5v1.961c-9.247 2.796-16 11.392-16 21.539s6.753 18.743 16 21.539v41.851c0 2.896 1.216 5.693 3.337 7.673 2.125 1.985 5.01 3.005 7.939 2.807 2.053-.15 3.944-.43 5.723-.796v1.446c0 5.831-1.442 11.642-4.171 16.807-2.717 5.143-6.712 9.605-11.547 12.903-13.952 9.492-22.281 25.238-22.281 42.12v258.4c0 25.502 20.748 46.25 46.25 46.25h268.5c25.502 0 46.25-20.748 46.25-46.25v-17.694c0-4.142-3.358-7.5-7.5-7.5s-7.5 3.358-7.5 7.5v17.694c0 17.231-14.019 31.25-31.25 31.25h-268.5c-17.231 0-31.25-14.019-31.25-31.25v-230.59h37.184c4.142 0 7.5-3.358 7.5-7.5s-3.358-7.5-7.5-7.5h-37.184v-12.81c0-11.912 5.876-23.022 15.725-29.723 6.853-4.673 12.512-10.999 16.366-18.293 3.865-7.315 5.909-15.55 5.909-23.814v-8.001c1.96-1.354 3.759-2.767 5.487-4.132 5.934-4.686 10.621-8.388 20.683-8.388 10.067 0 14.757 3.702 20.693 8.388 6.554 5.175 14.709 11.613 29.977 11.613 15.275 0 23.433-6.44 29.988-11.615 5.935-4.685 10.622-8.385 20.682-8.385 10.061 0 14.748 3.701 20.683 8.386 6.552 5.175 14.708 11.614 29.977 11.614 15.275 0 23.433-6.44 29.988-11.615 5.934-4.685 10.622-8.385 20.682-8.385 10.057 0 14.744 3.702 20.679 8.388 1.727 1.364 3.523 2.775 5.481 4.128v8.004c0 16.875 8.329 32.618 22.275 42.107 4.841 3.301 8.836 7.764 11.554 12.907 2.729 5.165 4.171 10.979 4.171 16.816v12.81h-261.072c-4.142 0-7.5 3.358-7.5 7.5s3.358 7.5 7.5 7.5h261.072v180.338c0 4.142 3.358 7.5 7.5 7.5zm-20-354.498h-29.68l5.889-15h23.791c4.136 0 7.5 3.364 7.5 7.5s-3.364 7.5-7.5 7.5zm-229.037-15-5.889 15h-31.169l5.889-15zm16.114 0h31.169l-5.889 15h-31.169zm47.283 0h31.169l-5.889 15h-31.169zm47.284 0h31.169l-5.889 15h-31.169zm47.283 0h31.169l-5.889 15h-31.169zm-234.927 0h29.68l-5.889 15h-23.791c-4.136 0-7.5-3.364-7.5-7.5s3.364-7.5 7.5-7.5zm254.34 46.5c-15.268 0-23.423 6.438-29.977 11.612-5.937 4.687-10.626 8.388-20.693 8.388-10.061 0-14.748-3.701-20.682-8.386-6.553-5.175-14.709-11.614-29.978-11.614-15.267 0-23.423 6.438-29.976 11.612-5.937 4.687-10.626 8.388-20.694 8.388-10.06 0-14.748-3.7-20.682-8.385-6.555-5.175-14.713-11.615-29.988-11.615-15.271 0-23.426 6.441-29.979 11.616-4.279 3.379-7.851 6.2-13.19 7.543v-35.659h289v35.656c-5.342-1.346-8.911-4.164-13.185-7.539-6.554-5.176-14.71-11.617-29.976-11.617z"/></g></svg>